HIERARCHY
ROOT joint_0
{
	OFFSET 0.000000 0.000000 0.000000
	CHANNELS 6 Xposition Yposition Zposition Zrotation Yrotation Xrotation 
	JOINT joint_1
	{
		OFFSET 13.542969 -4.074463 123.986084
		CHANNELS 3 Zrotation Yrotation Xrotation
		JOINT joint_2
		{
			OFFSET -0.108154 -3.018066 113.860962
			CHANNELS 3 Zrotation Yrotation Xrotation
			JOINT joint_3
			{
				OFFSET -1.139648 -3.876465 113.702026
				CHANNELS 3 Zrotation Yrotation Xrotation
				JOINT joint_4
				{
					OFFSET 13.593506 -8.582153 160.876953
					CHANNELS 3 Zrotation Yrotation Xrotation
					JOINT joint_5
					{
						OFFSET 26.480957 -11.565674 94.427979
						CHANNELS 3 Zrotation Yrotation Xrotation
						End Site
						{
							OFFSET 0.000000 0.000000 0.000000
						}
					}
				}
				JOINT joint_6
				{
					OFFSET 3.003662 -39.658691 88.713989
					CHANNELS 3 Zrotation Yrotation Xrotation
					JOINT joint_7
					{
						OFFSET -25.253906 -162.506348 -28.477051
						CHANNELS 3 Zrotation Yrotation Xrotation
						JOINT joint_8
						{
							OFFSET 23.083252 -8.502686 -295.281982
							CHANNELS 3 Zrotation Yrotation Xrotation
							JOINT joint_9
							{
								OFFSET 20.205566 -32.167908 -263.458008
								CHANNELS 3 Zrotation Yrotation Xrotation
								End Site
								{
									OFFSET 0.000000 0.000000 0.000000
								}
							}
						}
					}
				}
				JOINT joint_10
				{
					OFFSET 12.313232 30.012939 91.642944
					CHANNELS 3 Zrotation Yrotation Xrotation
					JOINT joint_11
					{
						OFFSET 31.960205 162.667969 -19.398926
						CHANNELS 3 Zrotation Yrotation Xrotation
						JOINT joint_12
						{
							OFFSET 51.325195 40.249023 -289.038086
							CHANNELS 3 Zrotation Yrotation Xrotation
							JOINT joint_13
							{
								OFFSET 70.170898 60.433594 -249.556030
								CHANNELS 3 Zrotation Yrotation Xrotation
								End Site
								{
									OFFSET 0.000000 0.000000 0.000000
								}
							}
						}
					}
				}
			}
		}
	}
	JOINT joint_14
	{
		OFFSET -15.093262 -91.803833 -113.326904
		CHANNELS 3 Zrotation Yrotation Xrotation
		JOINT joint_15
		{
			OFFSET 2.288818 -12.306763 -494.206055
			CHANNELS 3 Zrotation Yrotation Xrotation
			JOINT joint_16
			{
				OFFSET -54.691650 0.383423 -424.447006
				CHANNELS 3 Zrotation Yrotation Xrotation
				JOINT joint_17
				{
					OFFSET 202.154297 -21.791382 -80.181999
					CHANNELS 3 Zrotation Yrotation Xrotation
					End Site
					{
						OFFSET 0.000000 0.000000 0.000000
					}
				}
			}
		}
	}
	JOINT joint_18
	{
		OFFSET 10.704102 91.957275 -113.713013
		CHANNELS 3 Zrotation Yrotation Xrotation
		JOINT joint_19
		{
			OFFSET 0.427490 1.374878 -494.359924
			CHANNELS 3 Zrotation Yrotation Xrotation
			JOINT joint_20
			{
				OFFSET -53.071777 2.769531 -424.643028
				CHANNELS 3 Zrotation Yrotation Xrotation
				JOINT joint_21
				{
					OFFSET 200.264648 -28.253052 -82.862999
					CHANNELS 3 Zrotation Yrotation Xrotation
					End Site
					{
						OFFSET 0.000000 0.000000 0.000000
					}
				}
			}
		}
	}
}
MOTION
Frames: 18
Frame Time: 0.016667
-3156.836182 1267.628174 1142.576050 -0.507788 -1.049975 0.059240 -0.224505 -0.168857 0.166276 -0.219571 0.029609 -0.068361 -0.220526 -0.026799 0.028304 0.116686 0.217230 -0.321080 0.000000 0.000000 0.000000 -0.043462 0.932384 -0.237741 -0.000537 0.840194 0.305998 -0.041264 0.011344 -0.521455 0.000000 0.000000 0.000000 -0.346558 -0.218101 1.196526 -0.283977 0.524013 -2.542103 0.239090 0.385580 0.516583 0.000000 0.000000 0.000000 0.262698 0.767595 -0.277586 0.274228 0.395790 0.191991 0.285577 -0.119544 0.100379 0.000000 0.000000 0.000000 0.228717 0.973255 -0.190144 0.226260 0.065834 -0.211809 0.183508 0.570824 0.156458 0.000000 0.000000 0.000000 
-3156.912598 1267.516968 1142.573975 -0.453354 -1.058081 0.065363 -0.213667 -0.178462 0.150182 -0.208445 0.029941 -0.064632 -0.209535 -0.028588 0.025804 0.112515 0.211645 -0.308669 0.000000 0.000000 0.000000 -0.006841 0.874436 -0.241653 -0.017019 0.786919 0.331997 -0.073025 0.226605 -0.592936 0.000000 0.000000 0.000000 -0.355340 -0.244299 1.228631 -0.299961 0.514800 -2.601007 0.228443 0.364023 0.497400 0.000000 0.000000 0.000000 0.247970 0.767717 -0.272132 0.258929 0.417109 0.187528 0.270593 -0.130508 0.093254 0.000000 0.000000 0.000000 0.211785 0.983951 -0.188618 0.209227 0.042141 -0.215877 0.166822 0.585478 0.151622 0.000000 0.000000 0.000000 
-3156.957764 1267.372925 1142.567993 -0.384645 -1.066293 0.072060 -0.200990 -0.186401 0.131245 -0.195540 0.029444 -0.060757 -0.196698 -0.029528 0.024433 0.107841 0.203038 -0.295782 0.000000 0.000000 0.000000 0.032892 0.808818 -0.250838 -0.034933 0.724255 0.368940 -0.108443 0.470006 -0.667799 0.000000 0.000000 0.000000 -0.359649 -0.272974 1.260141 -0.316940 0.501758 -2.657006 0.215384 0.337575 0.473880 0.000000 0.000000 0.000000 0.228725 0.771621 -0.263628 0.239195 0.437852 0.180687 0.251123 -0.143382 0.084144 0.000000 0.000000 0.000000 0.190477 0.996695 -0.184061 0.187801 0.015897 -0.223213 0.145598 0.598833 0.144725 0.000000 0.000000 0.000000 
-3156.936279 1267.192749 1142.558960 -0.296163 -1.072891 0.081410 -0.185522 -0.197149 0.109177 -0.179761 0.029035 -0.056801 -0.181016 -0.031110 0.022666 0.102910 0.195412 -0.281545 0.000000 0.000000 0.000000 0.076833 0.740346 -0.266998 -0.053576 0.655095 0.427939 -0.148140 0.742593 -0.752443 0.000000 0.000000 0.000000 -0.364869 -0.300446 1.293417 -0.334627 0.489311 -2.708115 0.198177 0.304118 0.441679 0.000000 0.000000 0.000000 0.203146 0.781325 -0.254155 0.213327 0.455740 0.171535 0.225581 -0.159804 0.072243 0.000000 0.000000 0.000000 0.162358 1.010501 -0.181655 0.159560 -0.011990 -0.227957 0.118220 0.611598 0.135199 0.000000 0.000000 0.000000 
-3156.858887 1266.967651 1142.546997 -0.189686 -1.078273 0.094154 -0.168161 -0.212530 0.081727 -0.161910 0.030362 -0.051044 -0.163430 -0.035105 0.020108 0.098740 0.191250 -0.268511 0.000000 0.000000 0.000000 0.123078 0.669311 -0.291427 -0.073118 0.579097 0.509773 -0.192251 1.046721 -0.844642 0.000000 0.000000 0.000000 -0.372333 -0.324564 1.327791 -0.352535 0.478529 -2.748380 0.174919 0.262574 0.394952 0.000000 0.000000 0.000000 0.171920 0.795441 -0.244741 0.181946 0.472409 0.161001 0.194662 -0.179119 0.057898 0.000000 0.000000 0.000000 0.128217 1.023528 -0.182892 0.125315 -0.037891 -0.227879 0.085709 0.622962 0.123351 0.000000 0.000000 0.000000 
-3156.714844 1266.706421 1142.531006 -0.063752 -1.081995 0.109532 -0.148290 -0.231377 0.051651 -0.141412 0.033135 -0.045975 -0.143279 -0.040193 0.017357 0.094581 0.188573 -0.254863 0.000000 0.000000 0.000000 0.174247 0.594750 -0.322451 -0.093595 0.496365 0.612245 -0.240615 1.380435 -0.944761 0.000000 0.000000 0.000000 -0.378775 -0.347910 1.364443 -0.371271 0.467834 -2.784098 0.147490 0.214795 0.338766 0.000000 0.000000 0.000000 0.134423 0.815309 -0.234214 0.144499 0.485874 0.147925 0.157706 -0.201723 0.040803 0.000000 0.000000 0.000000 0.087391 1.037332 -0.186172 0.084385 -0.064833 -0.225320 0.047158 0.632840 0.108795 0.000000 0.000000 0.000000 
-3156.435059 1266.423706 1142.510986 0.097507 -1.079729 0.128081 -0.122960 -0.255414 0.018014 -0.115312 0.035554 -0.037737 -0.117594 -0.046234 0.012989 0.089507 0.188970 -0.236609 0.000000 0.000000 0.000000 0.229707 0.521916 -0.359433 -0.113846 0.410686 0.743335 -0.293218 1.735720 -1.063910 0.000000 0.000000 0.000000 -0.388135 -0.372295 1.405622 -0.391745 0.459062 -2.829800 0.119587 0.164719 0.282856 0.000000 0.000000 0.000000 0.085016 0.847450 -0.222015 0.095761 0.485489 0.129746 0.109487 -0.231850 0.018431 0.000000 0.000000 0.000000 0.033898 1.053216 -0.192205 0.030766 -0.099928 -0.221246 -0.003208 0.640943 0.089099 0.000000 0.000000 0.000000 
-3156.035645 1266.109985 1142.487061 0.291024 -1.074574 0.148149 -0.092463 -0.283205 -0.014201 -0.083940 0.037928 -0.028171 -0.086649 -0.052219 0.008428 0.084926 0.197210 -0.216690 0.000000 0.000000 0.000000 0.287699 0.450248 -0.408635 -0.132172 0.317456 0.918816 -0.350764 2.107417 -1.217384 0.000000 0.000000 0.000000 -0.403846 -0.398077 1.450351 -0.413095 0.452346 -2.886309 0.093661 0.118113 0.230945 0.000000 0.000000 0.000000 0.024272 0.897573 -0.204762 0.036603 0.464043 0.104716 0.050605 -0.267831 -0.008801 0.000000 0.000000 0.000000 -0.031603 1.072521 -0.200015 -0.034873 -0.139915 -0.212791 -0.064397 0.644034 0.064218 0.000000 0.000000 0.000000 
-3155.500488 1265.775879 1142.458008 0.519676 -1.063501 0.171335 -0.056751 -0.316651 -0.048198 -0.047155 0.041425 -0.017694 -0.050423 -0.060211 0.002162 0.079260 0.209718 -0.191024 0.000000 0.000000 0.000000 0.350732 0.379392 -0.462964 -0.150993 0.221129 1.120329 -0.412808 2.501403 -1.386737 0.000000 0.000000 0.000000 -0.421235 -0.425023 1.500797 -0.436273 0.447522 -2.952865 0.067054 0.069343 0.178458 0.000000 0.000000 0.000000 -0.048414 0.959673 -0.185371 -0.033898 0.429092 0.074202 -0.019644 -0.310895 -0.041305 0.000000 0.000000 0.000000 -0.109731 1.093623 -0.210287 -0.113155 -0.187296 -0.203058 -0.137383 0.644597 0.034099 0.000000 0.000000 0.000000 
-3154.714844 1265.464111 1142.421997 0.805321 -1.033316 0.202973 -0.010561 -0.362253 -0.098673 0.000504 0.045725 0.000520 -0.003585 -0.071624 -0.008222 0.067506 0.208579 -0.149587 0.000000 0.000000 0.000000 0.420549 0.313230 -0.504559 -0.175686 0.136683 1.302262 -0.477237 2.926298 -1.524644 0.000000 0.000000 0.000000 -0.434720 -0.456302 1.561596 -0.464909 0.443633 -3.041703 0.036638 0.007551 0.123654 0.000000 0.000000 0.000000 -0.139457 1.022371 -0.172136 -0.122671 0.391897 0.040035 -0.107546 -0.368187 -0.082343 0.000000 0.000000 0.000000 -0.206811 1.114478 -0.224969 -0.210453 -0.260038 -0.204056 -0.229631 0.651531 -0.003092 0.000000 0.000000 0.000000 
-3153.693848 1265.150024 1142.387939 1.154131 -0.983989 0.245239 0.047273 -0.425472 -0.174699 0.060468 0.054062 0.030106 0.055003 -0.089528 -0.027108 0.048733 0.200287 -0.086212 0.000000 0.000000 0.000000 0.500789 0.246910 -0.525083 -0.208920 0.062724 1.457621 -0.546116 3.397774 -1.624536 0.000000 0.000000 0.000000 -0.450605 -0.495770 1.637349 -0.498260 0.439386 -3.156956 0.006753 -0.062372 0.077773 0.000000 0.000000 0.000000 -0.250863 1.092053 -0.165207 -0.231231 0.339547 0.003042 -0.214418 -0.441054 -0.132582 0.000000 0.000000 0.000000 -0.324873 1.135676 -0.243853 -0.328802 -0.363033 -0.217476 -0.343281 0.668657 -0.047700 0.000000 0.000000 0.000000 
-3152.422852 1264.858398 1142.347046 1.559868 -0.915936 0.296476 0.115068 -0.498827 -0.266075 0.130712 0.061161 0.065567 0.123741 -0.109702 -0.050099 0.024294 0.178989 -0.008289 0.000000 0.000000 0.000000 0.589186 0.184149 -0.533675 -0.249649 0.000366 1.590014 -0.617954 3.899108 -1.684096 0.000000 0.000000 0.000000 -0.460215 -0.539643 1.723309 -0.536993 0.435103 -3.291165 -0.027960 -0.144356 0.025249 0.000000 0.000000 0.000000 -0.380645 1.162318 -0.163791 -0.358076 0.284869 -0.038069 -0.339033 -0.526950 -0.191260 0.000000 0.000000 0.000000 -0.461724 1.156393 -0.266216 -0.465983 -0.490784 -0.242623 -0.476128 0.692710 -0.099274 0.000000 0.000000 0.000000 
-3150.738281 1264.708862 1142.269043 2.025380 -0.814863 0.356421 0.193782 -0.579055 -0.358017 0.212082 0.066880 0.102110 0.203640 -0.130404 -0.072151 -0.009011 0.114322 0.082250 0.000000 0.000000 0.000000 0.681297 0.145787 -0.538208 -0.296298 -0.028119 1.675409 -0.684585 4.380186 -1.668923 0.000000 0.000000 0.000000 -0.435420 -0.579375 1.814552 -0.586622 0.433712 -3.440507 -0.084523 -0.259390 -0.076029 0.000000 0.000000 0.000000 -0.529738 1.200675 -0.174582 -0.506193 0.278602 -0.084581 -0.484391 -0.628320 -0.259828 0.000000 0.000000 0.000000 -0.617065 1.170137 -0.292836 -0.621674 -0.643706 -0.288580 -0.628873 0.719122 -0.158745 0.000000 0.000000 0.000000 
-3148.579834 1264.723145 1142.155029 2.567009 -0.679312 0.427821 0.281543 -0.673022 -0.446729 0.302894 0.071165 0.135800 0.293035 -0.152829 -0.091327 -0.052347 -0.004780 0.184539 0.000000 0.000000 0.000000 0.775274 0.125543 -0.548752 -0.353391 -0.027688 1.697709 -0.747430 4.867264 -1.542404 0.000000 0.000000 0.000000 -0.361070 -0.614087 1.900738 -0.648107 0.430425 -3.595545 -0.167949 -0.407359 -0.243309 0.000000 0.000000 0.000000 -0.691264 1.232445 -0.188747 -0.667068 0.277117 -0.149682 -0.643993 -0.744017 -0.335580 0.000000 0.000000 0.000000 -0.793185 1.180815 -0.324591 -0.798174 -0.830776 -0.360254 -0.804292 0.758229 -0.225800 0.000000 0.000000 0.000000 
-3146.008057 1264.878662 1142.005005 3.168628 -0.511546 0.508974 0.379249 -0.772566 -0.534234 0.403783 0.072877 0.168944 0.392631 -0.174813 -0.109787 -0.103869 -0.168350 0.296053 0.000000 0.000000 0.000000 0.876687 0.131207 -0.558042 -0.417114 0.008154 1.674415 -0.805169 5.326454 -1.331813 0.000000 0.000000 0.000000 -0.248016 -0.644447 1.988484 -0.719609 0.427103 -3.753906 -0.274930 -0.581420 -0.469536 0.000000 0.000000 0.000000 -0.872274 1.232752 -0.214193 -0.849368 0.323875 -0.219770 -0.824446 -0.873102 -0.421027 0.000000 0.000000 0.000000 -0.987851 1.184682 -0.358073 -0.993201 -1.042731 -0.454753 -0.999792 0.802367 -0.300439 0.000000 0.000000 0.000000 
-3143.040039 1265.229736 1141.790039 3.785613 -0.303650 0.593415 0.494225 -0.850921 -0.609987 0.521193 0.071624 0.199147 0.508971 -0.195429 -0.123910 -0.161661 -0.369032 0.412825 0.000000 0.000000 0.000000 0.983230 0.207812 -0.551715 -0.470665 0.118223 1.639943 -0.844273 5.621057 -1.104839 0.000000 0.000000 0.000000 -0.114083 -0.661455 2.089175 -0.800979 0.436468 -3.910319 -0.411371 -0.791034 -0.765359 0.000000 0.000000 0.000000 -1.094567 1.096273 -0.285626 -1.081733 0.598008 -0.254110 -1.048007 -1.013891 -0.524804 0.000000 0.000000 0.000000 -1.193135 1.164472 -0.388244 -1.198726 -1.251510 -0.568966 -1.207194 0.820429 -0.383655 0.000000 0.000000 0.000000 
-3139.629150 1265.807251 1141.459961 4.407685 -0.047821 0.685592 0.637409 -0.900068 -0.678975 0.665709 0.066061 0.231732 0.652493 -0.218775 -0.133553 -0.229196 -0.622058 0.539914 0.000000 0.000000 0.000000 1.105597 0.388448 -0.540510 -0.503357 0.327187 1.639096 -0.856884 5.695359 -0.878761 0.000000 0.000000 0.000000 0.049061 -0.666376 2.213978 -0.899450 0.459857 -4.073204 -0.590697 -1.050249 -1.161834 0.000000 0.000000 0.000000 -1.389205 0.825575 -0.441261 -1.394255 1.076160 -0.229265 -1.340768 -1.124550 -0.652716 0.000000 0.000000 0.000000 -1.410891 1.117242 -0.418341 -1.416633 -1.459605 -0.705219 -1.428422 0.802700 -0.477597 0.000000 0.000000 0.000000 
-3135.821777 1266.580322 1141.064941 5.045360 0.246900 0.784134 0.797311 -0.926784 -0.734262 0.826087 0.058153 0.260826 0.812002 -0.242738 -0.140548 -0.302962 -0.913989 0.670073 0.000000 0.000000 0.000000 1.237887 0.640518 -0.511884 -0.520092 0.608984 1.641452 -0.847100 5.602408 -0.647051 0.000000 0.000000 0.000000 0.237214 -0.657285 2.339872 -1.006949 0.490249 -4.209396 -0.802699 -1.332599 -1.640478 0.000000 0.000000 0.000000 -1.723858 0.421801 -0.646966 -1.755159 1.776745 -0.171291 -1.675096 -1.232964 -0.796740 0.000000 0.000000 0.000000 -1.639359 1.047287 -0.445944 -1.645220 -1.665580 -0.861324 -1.661741 0.763363 -0.579520 0.000000 0.000000 0.000000 
